<svg xmlns="http://www.w3.org/2000/svg" xmlns:xlink="http://www.w3.org/1999/xlink" width="500" zoomAndPan="magnify" viewBox="0 0 375 374.999991" height="500" preserveAspectRatio="xMidYMid meet" version="1.0"><defs><g/><clipPath id="id1"><path d="M 121.824219 84.582031 L 253.074219 84.582031 L 253.074219 237.582031 L 121.824219 237.582031 Z M 121.824219 84.582031 " clip-rule="nonzero"/></clipPath><clipPath id="id2"><path d="M 130.925781 95.171875 L 244.175781 95.171875 L 244.175781 227.171875 L 130.925781 227.171875 Z M 130.925781 95.171875 " clip-rule="nonzero"/></clipPath><clipPath id="id3"><path d="M 140.234375 115.929688 L 234.734375 115.929688 L 234.734375 199.929688 L 140.234375 199.929688 Z M 140.234375 115.929688 " clip-rule="nonzero"/></clipPath></defs><g fill="#000000" fill-opacity="1"><g transform="translate(57.123796, 278.980373)"><g><path d="M 21.835938 -3.5625 L 18.621094 -6.777344 C 15.617188 -3.738281 10.761719 -3.738281 7.757812 -6.777344 C 4.714844 -9.78125 4.714844 -14.640625 7.757812 -17.644531 C 10.761719 -20.683594 15.617188 -20.683594 18.621094 -17.644531 L 21.835938 -20.859375 C 17.050781 -25.644531 9.328125 -25.644531 4.542969 -20.859375 C -0.246094 -16.070312 -0.246094 -8.351562 4.542969 -3.5625 C 9.328125 1.222656 17.050781 1.222656 21.835938 -3.5625 Z M 21.835938 -3.5625 "/></g></g></g><g fill="#000000" fill-opacity="1"><g transform="translate(83.146964, 278.980373)"><g><path d="M 13.207031 0 C 19.949219 0 25.402344 -5.449219 25.402344 -12.230469 C 25.402344 -18.972656 19.949219 -24.421875 13.207031 -24.421875 C 6.429688 -24.421875 0.976562 -18.972656 0.976562 -12.230469 C 0.976562 -5.449219 6.429688 0 13.207031 0 Z M 13.207031 -19.914062 C 17.433594 -19.914062 20.894531 -16.457031 20.894531 -12.230469 C 20.894531 -7.964844 17.433594 -4.507812 13.207031 -4.507812 C 8.945312 -4.507812 5.484375 -7.964844 5.484375 -12.230469 C 5.484375 -16.457031 8.945312 -19.914062 13.207031 -19.914062 Z M 13.207031 -19.914062 "/></g></g></g><g fill="#000000" fill-opacity="1"><g transform="translate(112.767731, 278.980373)"><g><path d="M 5.484375 0 L 9.609375 0 C 16.351562 0 21.835938 -5.449219 21.835938 -12.230469 C 21.835938 -18.972656 16.351562 -24.421875 9.609375 -24.421875 L 0.976562 -24.421875 L 0.976562 0 Z M 5.484375 -19.914062 L 9.609375 -19.914062 C 13.871094 -19.914062 17.328125 -16.457031 17.328125 -12.230469 C 17.328125 -7.964844 13.871094 -4.507812 9.609375 -4.507812 L 5.484375 -4.507812 Z M 5.484375 -19.914062 "/></g></g></g><g fill="#000000" fill-opacity="1"><g transform="translate(138.825823, 278.980373)"><g><path d="M 5.484375 0 L 21.835938 0 L 21.835938 -4.507812 L 5.484375 -4.507812 L 5.484375 -9.957031 L 17.292969 -9.957031 L 17.292969 -14.464844 L 5.484375 -14.464844 L 5.484375 -19.914062 L 21.835938 -19.914062 L 21.835938 -24.421875 L 0.976562 -24.421875 L 0.976562 0 Z M 5.484375 0 "/></g></g></g><g fill="#000000" fill-opacity="1"><g transform="translate(164.848991, 278.980373)"><g><path d="M 21.835938 -3.5625 L 18.621094 -6.777344 C 15.617188 -3.738281 10.761719 -3.738281 7.757812 -6.777344 C 4.714844 -9.78125 4.714844 -14.640625 7.757812 -17.644531 C 10.761719 -20.683594 15.617188 -20.683594 18.621094 -17.644531 L 21.835938 -20.859375 C 17.050781 -25.644531 9.328125 -25.644531 4.542969 -20.859375 C -0.246094 -16.070312 -0.246094 -8.351562 4.542969 -3.5625 C 9.328125 1.222656 17.050781 1.222656 21.835938 -3.5625 Z M 21.835938 -3.5625 "/></g></g></g><g fill="#000000" fill-opacity="1"><g transform="translate(190.872159, 278.980373)"><g><path d="M 0.976562 0 L 5.484375 0 L 5.484375 -5.414062 L 12.332031 -5.414062 C 12.542969 -5.414062 12.789062 -5.414062 12.996094 -5.449219 L 16.492188 0 L 21.835938 0 L 17.433594 -6.917969 C 20.089844 -8.59375 21.835938 -11.566406 21.835938 -14.917969 C 21.835938 -20.195312 17.574219 -24.421875 12.332031 -24.421875 L 0.976562 -24.421875 Z M 5.484375 -19.914062 L 12.332031 -19.914062 C 15.09375 -19.914062 17.328125 -17.679688 17.328125 -14.917969 C 17.328125 -13.171875 16.386719 -11.632812 15.023438 -10.726562 C 14.253906 -10.238281 13.3125 -9.957031 12.332031 -9.957031 L 5.484375 -9.957031 Z M 5.484375 -19.914062 "/></g></g></g><g fill="#000000" fill-opacity="1"><g transform="translate(216.93025, 278.980373)"><g><path d="M 7.230469 -4.507812 L 15.582031 -4.507812 L 17.085938 0 L 21.835938 0 L 13.765625 -24.421875 L 9.015625 -24.421875 L 0.976562 0 L 5.730469 0 Z M 11.390625 -17.226562 L 14.082031 -9.050781 L 8.699219 -9.050781 Z M 11.390625 -17.226562 "/></g></g></g><g fill="#000000" fill-opacity="1"><g transform="translate(242.988334, 278.980373)"><g><path d="M 5.484375 -9.957031 L 17.292969 -9.957031 L 17.292969 -14.464844 L 5.484375 -14.464844 L 5.484375 -19.914062 L 21.835938 -19.914062 L 21.835938 -24.421875 L 0.976562 -24.421875 L 0.976562 0 L 5.484375 0 Z M 5.484375 -9.957031 "/></g></g></g><g fill="#000000" fill-opacity="1"><g transform="translate(269.011511, 278.980373)"><g><path d="M 9.152344 0 L 13.660156 0 L 13.660156 -19.914062 L 21.835938 -19.914062 L 21.835938 -24.421875 L 0.976562 -24.421875 L 0.976562 -19.914062 L 9.152344 -19.914062 Z M 9.152344 0 "/></g></g></g><g fill="#000000" fill-opacity="1"><g transform="translate(295.034688, 278.980373)"><g><path d="M 0.976562 0 L 5.484375 0 L 5.484375 -5.414062 L 12.332031 -5.414062 C 12.542969 -5.414062 12.789062 -5.414062 12.996094 -5.449219 L 16.492188 0 L 21.835938 0 L 17.433594 -6.917969 C 20.089844 -8.59375 21.835938 -11.566406 21.835938 -14.917969 C 21.835938 -20.195312 17.574219 -24.421875 12.332031 -24.421875 L 0.976562 -24.421875 Z M 5.484375 -19.914062 L 12.332031 -19.914062 C 15.09375 -19.914062 17.328125 -17.679688 17.328125 -14.917969 C 17.328125 -13.171875 16.386719 -11.632812 15.023438 -10.726562 C 14.253906 -10.238281 13.3125 -9.957031 12.332031 -9.957031 L 5.484375 -9.957031 Z M 5.484375 -19.914062 "/></g></g></g><g clip-path="url(#id1)"><path fill="#00ab6b" d="M 187.449219 84.582031 L 253.074219 122.832031 L 253.074219 199.332031 L 187.449219 237.582031 L 121.824219 199.332031 L 121.824219 122.832031 L 187.449219 84.582031 " fill-opacity="1" fill-rule="nonzero"/></g><g clip-path="url(#id2)"><path fill="#6b00ab" d="M 187.550781 95.171875 L 244.175781 128.171875 L 244.175781 194.171875 L 187.550781 227.171875 L 130.925781 194.171875 L 130.925781 128.171875 L 187.550781 95.171875 " fill-opacity="1" fill-rule="nonzero"/></g><g clip-path="url(#id3)"><path fill="#ffffff" d="M 157.683594 199.261719 C 154.148438 198.046875 153.757812 197.699219 153 195.140625 C 152.292969 192.738281 152.292969 192.402344 153.003906 192.253906 C 153.410156 192.171875 157.617188 187.910156 165.839844 179.25 C 172.5625 172.164062 178.925781 165.488281 179.980469 164.410156 C 181.414062 162.941406 181.839844 162.359375 181.683594 162.085938 C 181.246094 161.308594 162.898438 142.003906 162.429688 141.820312 C 162.25 141.753906 161.769531 142.046875 161.367188 142.476562 C 160.4375 143.464844 155.882812 149.554688 153.125 153.488281 C 151.96875 155.144531 150.886719 156.484375 150.726562 156.472656 C 150.566406 156.457031 148.140625 154.613281 145.34375 152.378906 L 140.253906 148.3125 L 140.9375 147.710938 C 141.3125 147.378906 142.6875 145.539062 143.996094 143.617188 C 147.800781 138.027344 151.984375 132.574219 154.070312 130.484375 C 156.890625 127.65625 172.722656 115.929688 173.722656 115.929688 C 173.976562 115.929688 175.410156 117.589844 177.449219 120.246094 C 179.707031 123.199219 180.972656 124.644531 181.4375 124.816406 C 181.816406 124.957031 182.085938 125.171875 182.039062 125.296875 C 181.996094 125.421875 179.523438 127.363281 176.550781 129.605469 C 173.578125 131.847656 170.367188 134.40625 169.414062 135.292969 C 166.917969 137.609375 166.800781 137.332031 172.753906 143.324219 C 178.730469 149.335938 193.625 163.800781 208.394531 177.933594 L 221.152344 190.140625 C 222.242188 191.1875 223.050781 191.769531 223.40625 191.769531 C 223.933594 191.769531 223.949219 191.824219 223.792969 193.027344 C 223.523438 195.035156 222.695312 196.847656 221.75 197.484375 C 220.855469 198.085938 219.140625 198.636719 217.398438 198.878906 L 216.304688 199.03125 L 202.035156 183.71875 C 194.1875 175.292969 187.691406 168.433594 187.601562 168.46875 C 187.511719 168.507812 181.570312 175.199219 174.394531 183.34375 C 167.222656 191.484375 160.960938 198.546875 160.480469 199.035156 L 159.609375 199.921875 L 157.6875 199.261719 Z M 190.144531 159.4375 L 187.273438 156.71875 L 195.933594 147.621094 C 203.238281 139.941406 204.589844 138.414062 204.589844 137.824219 C 204.589844 137.21875 203.769531 136.359375 198.621094 131.558594 C 195.339844 128.496094 192.714844 125.894531 192.789062 125.777344 C 192.863281 125.65625 193.140625 125.5625 193.410156 125.5625 C 193.714844 125.5625 195.515625 124.019531 198.1875 121.46875 C 200.542969 119.214844 202.589844 117.375 202.730469 117.375 C 202.871094 117.375 205.429688 119.757812 208.414062 122.671875 C 214.078125 128.195312 214.472656 128.472656 215.363281 127.488281 C 215.601562 127.222656 215.972656 127.007812 216.183594 127.007812 C 216.394531 127.011719 217.320312 127.65625 218.246094 128.441406 C 219.316406 129.355469 220.183594 129.898438 220.636719 129.945312 L 221.347656 130.015625 L 220.546875 130.925781 C 220.105469 131.425781 219.707031 132.15625 219.664062 132.542969 C 219.589844 133.167969 219.8125 133.449219 221.535156 134.941406 C 222.605469 135.875 223.605469 136.636719 223.75 136.636719 C 223.992188 136.640625 234.710938 157.351562 234.570312 157.539062 C 234.539062 157.585938 230.417969 155.433594 225.417969 152.761719 L 216.324219 147.902344 L 213.558594 145.15625 C 212.035156 143.648438 210.722656 142.414062 210.636719 142.414062 C 210.554688 142.414062 206.570312 146.855469 201.785156 152.285156 C 197 157.714844 193.066406 162.15625 193.046875 162.15625 C 193.027344 162.15625 191.722656 160.933594 190.144531 159.4375 Z M 190.144531 159.4375 " fill-opacity="1" fill-rule="nonzero"/></g></svg>