<svg xmlns="http://www.w3.org/2000/svg" xmlns:xlink="http://www.w3.org/1999/xlink" width="500" zoomAndPan="magnify" viewBox="0 0 375 374.999991" height="500" preserveAspectRatio="xMidYMid meet" version="1.0"><defs><clipPath id="id1"><path d="M 38.8125 13.71875 L 337.3125 13.71875 L 337.3125 360.96875 L 38.8125 360.96875 Z M 38.8125 13.71875 " clip-rule="nonzero"/></clipPath><clipPath id="id2"><path d="M 59.503906 37.796875 L 316.753906 37.796875 L 316.753906 337.046875 L 59.503906 337.046875 Z M 59.503906 37.796875 " clip-rule="nonzero"/></clipPath><clipPath id="id3"><path d="M 80.679688 85.003906 L 295.929688 85.003906 L 295.929688 275.503906 L 80.679688 275.503906 Z M 80.679688 85.003906 " clip-rule="nonzero"/></clipPath></defs><g clip-path="url(#id1)"><path fill="#00ab6b" d="M 188.0625 13.71875 L 337.308594 100.53125 L 337.308594 274.15625 L 188.0625 360.96875 L 38.816406 274.15625 L 38.816406 100.53125 L 188.0625 13.71875 " fill-opacity="1" fill-rule="nonzero"/></g><g clip-path="url(#id2)"><path fill="#6b00ab" d="M 188.128906 37.800781 L 316.753906 112.609375 L 316.753906 262.234375 L 188.128906 337.046875 L 59.503906 262.234375 L 59.503906 112.609375 L 188.128906 37.800781 " fill-opacity="1" fill-rule="nonzero"/></g><g clip-path="url(#id3)"><path fill="#ffffff" d="M 120.429688 273.980469 C 112.375 271.222656 111.480469 270.441406 109.761719 264.632812 C 108.144531 259.1875 108.148438 258.425781 109.765625 258.09375 C 110.695312 257.902344 120.273438 248.238281 139 228.597656 C 154.316406 212.53125 168.8125 197.386719 171.207031 194.945312 C 174.472656 191.617188 175.445312 190.296875 175.09375 189.675781 C 174.089844 187.914062 132.304688 144.125 131.238281 143.71875 C 130.824219 143.558594 129.734375 144.226562 128.816406 145.199219 C 126.699219 147.445312 116.320312 161.253906 110.042969 170.175781 C 107.40625 173.929688 104.945312 176.972656 104.578125 176.941406 C 104.210938 176.90625 98.695312 172.730469 92.320312 167.660156 L 80.726562 158.4375 L 82.28125 157.074219 C 83.136719 156.320312 86.273438 152.144531 89.25 147.789062 C 97.921875 135.117188 107.449219 122.75 112.195312 118.007812 C 118.621094 111.59375 154.683594 85 156.953125 85 C 157.539062 85 160.796875 88.757812 165.441406 94.792969 C 170.589844 101.480469 173.46875 104.761719 174.53125 105.152344 C 175.386719 105.46875 176.003906 105.957031 175.902344 106.242188 C 175.796875 106.527344 170.171875 110.925781 163.398438 116.011719 C 156.625 121.101562 149.308594 126.902344 147.144531 128.90625 C 141.457031 134.167969 141.191406 133.539062 154.75 147.121094 C 168.363281 160.757812 202.289062 193.566406 235.925781 225.613281 L 264.980469 253.296875 C 267.46875 255.671875 269.304688 256.992188 270.113281 256.992188 C 271.316406 256.992188 271.359375 257.121094 270.996094 259.847656 C 270.390625 264.402344 268.5 268.503906 266.339844 269.953125 C 264.3125 271.316406 260.40625 272.5625 256.433594 273.113281 L 253.945312 273.460938 L 221.445312 238.730469 C 203.570312 219.628906 188.777344 204.066406 188.570312 204.148438 C 188.363281 204.234375 174.828125 219.414062 158.492188 237.882812 C 142.15625 256.351562 127.894531 272.363281 126.800781 273.46875 L 124.808594 275.476562 Z M 194.359375 183.664062 L 187.824219 177.5 L 207.542969 156.867188 C 224.183594 139.449219 227.257812 135.984375 227.257812 134.648438 C 227.257812 133.28125 225.394531 131.332031 213.667969 120.441406 C 206.195312 113.496094 200.214844 107.597656 200.382812 107.328125 C 200.546875 107.058594 201.1875 106.839844 201.800781 106.839844 C 202.496094 106.839844 206.589844 103.34375 212.679688 97.558594 C 218.046875 92.453125 222.703125 88.277344 223.027344 88.277344 C 223.347656 88.277344 229.175781 93.679688 235.976562 100.289062 C 248.871094 112.816406 249.773438 113.441406 251.800781 111.207031 C 252.34375 110.605469 253.183594 110.117188 253.664062 110.121094 C 254.144531 110.128906 256.257812 111.589844 258.363281 113.375 C 260.804688 115.445312 262.773438 116.675781 263.808594 116.78125 L 265.429688 116.941406 L 263.605469 119.007812 C 262.601562 120.144531 261.695312 121.796875 261.589844 122.675781 C 261.425781 124.085938 261.929688 124.730469 265.851562 128.117188 C 268.296875 130.226562 270.570312 131.957031 270.902344 131.960938 C 271.449219 131.964844 295.871094 178.941406 295.546875 179.367188 C 295.472656 179.464844 286.089844 174.589844 274.699219 168.527344 L 253.988281 157.507812 L 247.6875 151.28125 C 244.21875 147.859375 241.226562 145.058594 241.039062 145.058594 C 240.847656 145.058594 231.773438 155.132812 220.875 167.445312 C 209.972656 179.757812 201.019531 189.832031 200.972656 189.832031 C 200.929688 189.832031 197.953125 187.054688 194.359375 183.664062 Z M 194.359375 183.664062 " fill-opacity="1" fill-rule="nonzero"/></g></svg>